# xmcd
#
# Track frame offsets: 
#        150
#        12583
#        25946
#        46871
#        69800
#        89466
#        103509
#        126107
#        143891
#        165521
#        185081
#        206440
#
# Disc length: 2932 seconds
#
# Revision: 0
# Processed by: cddbd v1.5.2PL0 Copyright (c) Steve Scherf et al.
# Submitted via: ExactAudioCopyFreeDBPlugin 1.0
#
DISCID=9d0b720c
DTITLE=Steve Kozak - Lookin' at Lucky
DYEAR=2012
DGENRE=Blues
TTITLE0=Lookin' at Lucky
TTITLE1=Blues Dance Party
TTITLE2=Your Funeral and My Trial
TTITLE3=Lay Low and Go Slow
TTITLE4=Is It Yes?
TTITLE5=Down at the Barroom
TTITLE6=Little Girl
TTITLE7=Come to Me
TTITLE8=Need My Baby
TTITLE9=I Know You're Fine
TTITLE10=Read My Mind
TTITLE11=I Hear You Knockin'
EXTD=
EXTT0=
EXTT1=
EXTT2=
EXTT3=
EXTT4=
EXTT5=
EXTT6=
EXTT7=
EXTT8=
EXTT9=
EXTT10=
EXTT11=
PLAYORDER=
